<?xml version="1.0" encoding="UTF-8" standalone="no"?>

<!-- Created with Inkscape (http://www.inkscape.org/) -->

<svg xmlns:rdf="http://www.w3.org/1999/02/22-rdf-syntax-ns#" xmlns="http://www.w3.org/2000/svg" xml:space="preserve" height="125.624" width="438.326" version="1.0" xmlns:cc="http://creativecommons.org/ns#" viewBox="0 0 19.139255 5.4852167" xmlns:dc="http://purl.org/dc/elements/1.1/"><metadata><rdf:RDF><cc:Work rdf:about=""><dc:format>image/svg+xml</dc:format><dc:type rdf:resource="http://purl.org/dc/dcmitype/StillImage"/><dc:title/></cc:Work></rdf:RDF></metadata>
	<path fill="#e0e0e0" d="m18.6704,0.174592c0.163263,0,0.294215,0.133672,0.294215,0.300337,0,0.169386-0.130952,0.301357-0.296256,0.301357-0.163264,0-0.296935-0.131971-0.296935-0.301357,0.00034-0.166665,0.133671-0.300337,0.297275-0.300337h0.0017zm-0.0017,0.047618c-0.131632,0-0.239794,0.112924-0.239794,0.252718,0,0.143536,0.108162,0.253739,0.241835,0.253739,0.132991,0.00204,0.239113-0.110203,0.239113-0.251698,0-0.141835-0.106462-0.254759-0.239113-0.254759h-0.0021zm-0.05612,0.426866-0.05238,0,0-0.33435c0.02789-0.00374,0.05374-0.00782,0.09422-0.00782,0.05,0,0.08367,0.011225,0.10374,0.02483,0.02041,0.014966,0.03027,0.037755,0.03027,0.069387,0,0.044217-0.02891,0.070747-0.06462,0.081972v0.00238c0.02925,0.00544,0.04932,0.032652,0.05646,0.080611,0.0075,0.052041,0.0153,0.072448,0.02075,0.082652h-0.05578c-0.0082-0.010204-0.01667-0.041156-0.02313-0.084013-0.0072-0.043197-0.02925-0.059183-0.07142-0.059183h-0.03741v0.143536h-0.00068zm0-0.184692,0.03877,0c0.04353,0,0.08095-0.016326,0.08095-0.057482,0-0.029251-0.02143-0.058503-0.08095-0.058503-0.01701,0-0.02925,0.00102-0.03877,0.00272v0.113264m-16.8618,0.795907h0.593871l0.578225,2.27072,0.5636-2.27072h0.622443l-0.911895,3.00881h-0.549654l-0.8966-3.00881m7.2319,0h0.578906v2.50202h1.25713v0.506457h-1.85066c0-0.995228-0.025171-2.03875,0.014622-3.00847m2.5595,0,0.607817,0,0.577885,2.24215,0.56428-2.24215,0.607476,0-0.911554,3.00881-0.535369,0-0.910535-3.00881m3.61527,0h1.2442v0.390812h-0.810536v0.433329h0.738088v0.390812h-0.738088v0.447615h0.810536v0.391152h-1.25815l0.01394-2.05372m-9.31351,0,0.810196,0,0.853052,3.00881-0.607137,0-0.202719-0.752033-0.896589,0s-0.15544,0.604756-0.188433,0.737407c-0.18027,0.01429-0.621422,0-0.621422,0l0.853059-2.99419zm0.390472,0.506797-0.318364,1.2721,0.665299,0l-0.34695-1.2721m-6.05911-1.57583,18.0635,0.014286v5.10505h-18.0641c0-1.6925,0.00068027-5.11933,0.00068027-5.11933zm0.520063,0.548634,0,4.04894h17.0226v-4.04894h-17.0226"/>
</svg>

